# File created by Blade
# Date/Time:  Tue Jan 27 19:18:50 2015
#---------------------------------------------------------
:version 1.10
:name HOM
:units
  mass 1.0
  length 1.000000
  angle deg
:documentation
     Acclaim Skeleton File
:root
   axis xyz
   order TX TY TZ RX RY RZ
   position 0.000000 0.000000 0.000000
   orientation 0 0 0
:bonedata
   begin
      id 1
      name Spine_dum
      direction 0.000000 1.000000 0.000000
      length 6.116652
      axis 0.0 0.0 0.0 xyz
   end
   begin
      id 2
      name LeftUpLeg_dum
      direction 1.000000 0.000000 0.000000
      length 4.711765
      axis 0.0 0.0 0.0 xyz
   end
   begin
      id 3
      name RightUpLeg_dum
      direction -1.000000 0.000000 0.000000
      length 4.711765
      axis 0.0 0.0 0.0 xyz
   end
   begin
      id 4
      name Spine
      direction 0.000000 1.000000 0.000000
      length 0.000000
      axis 0.0 0.0 0.0 xyz
      dof rx ry rz
   end
   begin
      id 5
      name Spine_dum1
      direction 0.000000 1.000000 0.000000
      length 15.225563
      axis 0.0 0.0 0.0 xyz
   end
   begin
      id 6
      name Spine_dum2
      direction 0.000000 1.000000 0.000000
      length 8.977654
      axis 0.0 0.0 0.0 xyz
   end
   begin
      id 7
      name Spine_dum3
      direction 0.000000 1.000000 0.000000
      length 8.977654
      axis 0.0 0.0 0.0 xyz
   end
   begin
      id 8
      name Head
      direction 0.000000 1.000000 0.000000
      length 4.527550
      axis 0.0 0.0 0.0 xyz
      dof rx ry rz
   end
   begin
      id 9
      name LeftShoulder
      direction 1.000000 0.000000 0.000000
      length 7.110130
      axis 0.0 0.0 -90.0 xyz
      dof rx ry rz
   end
   begin
      id 10
      name LeftArm
      direction 1.000000 0.000000 0.000000
      length 10.398341
      axis 0.0 0.0 -90.0 xyz
      dof rx ry rz
   end
   begin
      id 11
      name LeftForeArm
      direction 1.000000 0.000000 0.000000
      length 8.888997
      axis 0.0 0.0 -90.0 xyz
      dof ry rz rx
   end
   begin
      id 12
      name LeftHand
      direction 0.000000 0.000000 0.000000
      length 0.000000
      axis 0.0 0.0 -90.0 xyz
      dof rx ry rz
   end
   begin
      id 13
      name LeftHand_dum1
      direction 0.000000 0.000000 0.000000
      length 0.000000
      axis 0.0 0.0 -90.0 xyz
   end
   begin
      id 14
      name LeftHand_dum2
      direction 1.000000 0.000000 0.000000
      length 3.937000
      axis 0.0 0.0 -90.0 xyz
   end
   begin
      id 15
      name LeftHandThumb1
      direction 0.000000 0.000000 1.000000
      length 3.937000
      axis 0.0 0.0 -90.0 xyz
      dof rx rz ry
   end
   begin
      id 16
      name RightShoulder
      direction -1.000000 0.000000 0.000000
      length 7.110130
      axis 0.0 0.0 90.0 xyz
      dof rx ry rz
   end
   begin
      id 17
      name RightArm
      direction -1.000000 0.000000 0.000000
      length 10.398341
      axis 0.0 0.0 90.0 xyz
      dof rx ry rz
   end
   begin
      id 18
      name RightForeArm
      direction -1.000000 0.000000 0.000000
      length 8.888997
      axis 0.0 0.0 90.0 xyz
      dof ry rz rx
   end
   begin
      id 19
      name RightHand
      direction 0.000000 0.000000 0.000000
      length 0.000000
      axis 0.0 0.0 90.0 xyz
      dof rx ry rz
   end
   begin
      id 20
      name RightHand_dum1
      direction 0.000000 0.000000 0.000000
      length 0.000000
      axis 0.0 0.0 90.0 xyz
   end
   begin
      id 21
      name RightHand_dum2
      direction -1.000000 0.000000 0.000000
      length 3.937000
      axis 0.0 0.0 90.0 xyz
   end
   begin
      id 22
      name RightHandThumb1
      direction 0.000000 0.000000 1.000000
      length 3.937000
      axis 0.0 0.0 90.0 xyz
      dof rx rz ry
   end
   begin
      id 23
      name LeftUpLeg
      direction 0.000000 -1.000000 0.000000
      length 15.510451
      axis 0.0 0.0 0.0 xyz
      dof rx ry rz
   end
   begin
      id 24
      name LeftLeg
      direction 0.000000 -1.000000 0.000000
      length 14.858061
      axis 0.0 0.0 0.0 xyz
      dof rx ry rz
   end
   begin
      id 25
      name LeftFoot
      direction 0.000000 -0.258819 0.965926
      length 5.128852
      axis 15.0 0.0 0.0 xyz
      dof rx ry rz
   end
   begin
      id 26
      name LeftToeBase
      direction 0.000000 0.000000 1.000000
      length 2.952750
      axis 0.0 0.0 0.0 xyz
      dof rx ry rz
   end
   begin
      id 27
      name RightUpLeg
      direction 0.000000 -1.000000 0.000000
      length 15.510451
      axis 0.0 0.0 0.0 xyz
      dof rx ry rz
   end
   begin
      id 28
      name RightLeg
      direction 0.000000 -1.000000 0.000000
      length 14.858061
      axis 0.0 0.0 0.0 xyz
      dof rx ry rz
   end
   begin
      id 29
      name RightFoot
      direction 0.000000 -0.258819 0.965926
      length 5.128852
      axis 15.0 0.0 0.0 xyz
      dof rx ry rz
   end
   begin
      id 30
      name RightToeBase
      direction 0.000000 0.000000 1.000000
      length 2.952750
      axis 0.0 0.0 0.0 xyz
      dof rx ry rz
   end
:hierarchy
   begin
      root Spine_dum LeftUpLeg_dum RightUpLeg_dum
      Spine_dum Spine
      LeftUpLeg_dum LeftUpLeg
      RightUpLeg_dum RightUpLeg
      Spine Spine_dum1 Spine_dum2 Spine_dum3
      Spine_dum1 Head
      Spine_dum2 LeftShoulder
      Spine_dum3 RightShoulder
      LeftShoulder LeftArm
      LeftArm LeftForeArm
      LeftForeArm LeftHand
      LeftHand LeftHand_dum1 LeftHand_dum2
      LeftHand_dum1 LeftHandThumb1
      RightShoulder RightArm
      RightArm RightForeArm
      RightForeArm RightHand
      RightHand RightHand_dum1 RightHand_dum2
      RightHand_dum1 RightHandThumb1
      LeftUpLeg LeftLeg
      LeftLeg LeftFoot
      LeftFoot LeftToeBase
      RightUpLeg RightLeg
      RightLeg RightFoot
      RightFoot RightToeBase
   end

# File created by Blade
# Date/Time:  Tue Jan 27 19:18:41 2015
# Frame Rate: 120.000 fps
#------------------------------------------------------
:FULLY-SPECIFIED
:DEGREES
130
root 3.986582 32.398463 0.099626 -4.540351 7.130218 1.346798
Spine 2.030365 13.668896 0.921365
Head 0.643677 -20.859938 0.086716
LeftShoulder -9.855598 -0.064415 28.655732
LeftArm -0.439014 37.900291 -85.765520
LeftForeArm 22.318566 0.000000 50.370648
LeftHand 10.122116 -0.000000 -8.734936
LeftHandThumb1 -26.253704 0.000000 33.147579
RightShoulder -9.889771 15.218473 -53.261291
RightArm 76.764379 36.707223 110.436420
RightForeArm 9.127680 0.000000 63.644181
RightHand 23.068724 -0.000000 -15.730636
RightHandThumb1 -24.326973 -0.000000 -32.862282
LeftUpLeg 8.148281 -4.343330 -1.679667
LeftLeg 3.215027 -0.000000 -0.000000
LeftFoot -15.344206 11.529253 -22.221349
LeftToeBase 16.941168 -0.000000 -0.000000
RightUpLeg 9.129906 -12.044889 -0.029707
RightLeg 1.322367 -0.000000 -0.000000
RightFoot -13.458877 -16.080685 14.244064
RightToeBase 11.110388 -0.000000 -0.000000
131
root 3.980169 32.398638 0.098982 -4.447405 7.355681 1.363560
Spine 1.952320 14.041811 0.872042
Head 0.456158 -21.462838 0.089214
LeftShoulder -9.745943 -0.125108 28.432678
LeftArm -0.876375 37.992595 -87.117223
LeftForeArm 22.031856 -0.000000 49.616458
LeftHand 10.402229 -0.000000 -9.878396
LeftHandThumb1 -26.253704 0.000000 33.147579
RightShoulder -9.738546 16.024623 -53.505779
RightArm 76.513357 36.127471 110.750997
RightForeArm 8.910315 -0.000000 64.490372
RightHand 23.137680 -0.000000 -15.590312
RightHandThumb1 -24.326973 -0.000000 -32.862282
LeftUpLeg 8.043588 -4.440893 -1.670573
LeftLeg 3.178228 -0.000000 -0.000000
LeftFoot -15.253370 11.434476 -22.179542
LeftToeBase 16.969843 -0.000000 -0.000000
RightUpLeg 9.116980 -12.209899 -0.032811
RightLeg 1.225114 -0.000000 -0.000000
RightFoot -13.425439 -16.115845 14.237116
RightToeBase 11.005607 -0.000000 -0.000000
132
root 3.972843 32.398435 0.098222 -4.347200 7.578797 1.378965
Spine 1.870853 14.425713 0.811328
Head 0.261016 -22.063474 0.113024
LeftShoulder -9.652578 -0.154247 28.206386
LeftArm -1.247351 38.061734 -88.413207
LeftForeArm 21.908389 -0.000000 48.744902
LeftHand 10.489496 -0.000000 -9.496449
LeftHandThumb1 -26.253704 0.000000 33.147579
RightShoulder -9.558708 16.368049 -53.618228
RightArm 76.704424 35.436533 111.184000
RightForeArm 8.892009 -0.000000 65.302057
RightHand 23.128487 -0.000000 -15.499543
RightHandThumb1 -24.326973 -0.000000 -32.862282
LeftUpLeg 7.929190 -4.547291 -1.662504
LeftLeg 3.150848 -0.000000 -0.000000
LeftFoot -15.157268 11.301875 -22.324853
LeftToeBase 16.664421 -0.000000 -0.000000
RightUpLeg 9.087032 -12.394150 -0.031124
RightLeg 1.145585 -0.000000 -0.000000
RightFoot -13.436717 -16.144630 14.243959
RightToeBase 11.041955 -0.000000 -0.000000
133
root 3.965026 32.398654 0.096757 -4.245874 7.799872 1.397417
Spine 1.797829 14.783978 0.746835
Head 0.027784 -22.650899 0.140579
LeftShoulder -9.643124 -0.500319 28.037725
LeftArm -1.996973 38.047691 -89.948850
LeftForeArm 22.033749 -0.000000 47.734293
LeftHand 10.554381 0.000000 -7.897610
LeftHandThumb1 -26.253704 0.000000 33.147579
RightShoulder -9.382498 16.839600 -53.751960
RightArm 76.676590 34.806917 111.421452
RightForeArm 9.216308 -0.000000 66.069981
RightHand 23.019374 -0.000000 -15.681144
RightHandThumb1 -24.326973 -0.000000 -32.862282
LeftUpLeg 7.804482 -4.641750 -1.652077
LeftLeg 3.125299 -0.000000 -0.000000
LeftFoot -15.092086 11.267104 -22.128523
LeftToeBase 17.017809 -0.000000 -0.000000
RightUpLeg 9.053585 -12.542333 -0.025087
RightLeg 1.066926 -0.000000 -0.000000
RightFoot -13.442636 -16.211637 14.254250
RightToeBase 11.017703 -0.000000 -0.000000
134
root 3.961417 32.399685 0.097035 -4.144561 8.006654 1.428376
Spine 1.720864 15.186238 0.683753
Head -0.186482 -23.257390 0.150439
LeftShoulder -9.559896 -0.583492 27.794705
LeftArm -2.465352 37.838355 -91.235074
LeftForeArm 21.857512 0.000000 46.736275
LeftHand 10.761687 -0.000000 -7.677585
LeftHandThumb1 -26.253704 0.000000 33.147579
RightShoulder -9.220245 17.039459 -53.829525
RightArm 76.923404 34.055428 111.831989
RightForeArm 9.838979 -0.000000 66.752596
RightHand 23.174714 0.000000 -15.588092
RightHandThumb1 -24.326973 -0.000000 -32.862282
LeftUpLeg 7.689650 -4.619970 -1.644820
LeftLeg 3.092375 -0.000000 -0.000000
LeftFoot -14.954374 11.101603 -22.059539
LeftToeBase 17.074014 -0.000000 -0.000000
RightUpLeg 9.015135 -12.681723 -0.046429
RightLeg 1.011573 -0.000000 -0.000000
RightFoot -13.468111 -16.217663 14.316712
RightToeBase 11.079938 -0.000000 -0.000000
135
root 3.954647 32.400485 0.098298 -4.044381 8.229897 1.444671
Spine 1.648662 15.621117 0.628746
Head -0.424667 -23.908820 0.164601
LeftShoulder -9.473369 -0.751419 27.572227
LeftArm -2.997417 37.516938 -92.540003
LeftForeArm 21.606401 0.000000 45.698643
LeftHand 10.831505 -0.000000 -8.186600
LeftHandThumb1 -26.253704 0.000000 33.147579
RightShoulder -9.179181 18.180134 -54.149911
RightArm 75.998608 33.681419 111.759725
RightForeArm 10.754081 -0.000000 67.442492
RightHand 23.349539 -0.000000 -15.281361
RightHandThumb1 -24.326973 -0.000000 -32.862282
LeftUpLeg 7.572115 -4.738491 -1.639595
LeftLeg 3.085807 -0.000000 -0.000000
LeftFoot -14.808358 10.973335 -22.073444
LeftToeBase 16.594499 -0.000000 -0.000000
RightUpLeg 8.995607 -12.842473 -0.043022
RightLeg 0.918954 -0.000000 -0.000000
RightFoot -13.454850 -16.263183 14.330611
RightToeBase 11.063519 -0.000000 -0.000000
136
root 3.946994 32.401690 0.102222 -3.960192 8.467355 1.463368
Spine 1.585724 16.027816 0.555386
Head -0.643004 -24.561465 0.210823
LeftShoulder -9.411479 -0.929445 27.374083
LeftArm -3.493436 37.118431 -93.801127
LeftForeArm 21.178572 -0.000000 44.470350
LeftHand 11.418961 -0.000000 -8.603181
LeftHandThumb1 -26.253704 0.000000 33.147579
RightShoulder -9.121905 18.934731 -54.360784
RightArm 75.459232 33.165482 111.889302
RightForeArm 11.644631 -0.000000 68.148813
RightHand 23.505874 0.000000 -15.142293
RightHandThumb1 -24.326973 -0.000000 -32.862282
LeftUpLeg 7.468921 -4.868965 -1.633361
LeftLeg 3.067369 -0.000000 -0.000000
LeftFoot -14.733890 10.955760 -21.895178
LeftToeBase 16.803644 -0.000000 -0.000000
RightUpLeg 8.999179 -13.017317 -0.043949
RightLeg 0.823469 -0.000000 -0.000000
RightFoot -13.435979 -16.316510 14.323260
RightToeBase 11.001019 -0.000000 -0.000000
137
root 3.939602 32.402650 0.104966 -3.871048 8.694524 1.477337
Spine 1.514337 16.418799 0.494003
Head -0.834194 -25.167258 0.224369
LeftShoulder -9.363922 -1.011566 27.150454
LeftArm -3.868711 36.664143 -94.952853
LeftForeArm 21.044924 0.000000 43.176361
LeftHand 11.583782 -0.000000 -7.450696
LeftHandThumb1 -26.253704 0.000000 33.147579
RightShoulder -9.010622 19.513316 -54.517452
RightArm 75.112672 32.597967 112.141374
RightForeArm 12.497732 0.000000 68.879177
RightHand 23.497555 -0.000000 -15.473513
RightHandThumb1 -24.326973 -0.000000 -32.862282
LeftUpLeg 7.360050 -4.995329 -1.619818
LeftLeg 3.045505 -0.000000 -0.000000
LeftFoot -14.702339 10.874193 -21.973684
LeftToeBase 17.074165 -0.000000 -0.000000
RightUpLeg 8.992600 -13.163208 -0.035849
RightLeg 0.730937 -0.000000 -0.000000
RightFoot -13.420867 -16.393717 14.315103
RightToeBase 10.996646 -0.000000 -0.000000
138
root 3.933523 32.404400 0.111221 -3.808610 8.926751 1.490060
Spine 1.486000 16.803681 0.439218
Head -1.075483 -25.762539 0.271077
LeftShoulder -9.358231 -1.076333 26.914408
LeftArm -4.171365 36.100459 -96.021327
LeftForeArm 20.552940 -0.000000 41.778559
LeftHand 11.923545 -0.000000 -7.602405
LeftHandThumb1 -26.253704 0.000000 33.147579
RightShoulder -8.970765 20.141608 -54.680758
RightArm 74.670424 32.024202 112.432034
RightForeArm 13.133753 0.000000 69.673695
RightHand 23.433932 -0.000000 -15.614828
RightHandThumb1 -24.326973 -0.000000 -32.862282
LeftUpLeg 7.288903 -5.169295 -1.620518
LeftLeg 3.030968 -0.000000 -0.000000
LeftFoot -14.590431 10.839905 -21.864742
LeftToeBase 16.889063 -0.000000 -0.000000
RightUpLeg 9.008975 -13.285494 -0.033368
RightLeg 0.659592 -0.000000 -0.000000
RightFoot -13.440451 -16.471190 14.368713
RightToeBase 11.064093 -0.000000 -0.000000
